<svg width="1215" height="1149" viewBox="0 0 1215 1149" fill="none" xmlns="http://www.w3.org/2000/svg">
<path d="M607 3.5V193.238V619.533M607 1148.5V619.533M607 619.533C607 191.595 152.833 25.2665 0 25.2665M607 619.533C607 193.238 302.667 25.2665 228 25.2665M607 619.533C607 193.238 464.5 25.2665 427.5 25.2665" stroke="white" stroke-linejoin="round"/>
<path d="M607.5 0V190.401V618.185M607.5 1149V618.185M607.5 618.185C607.5 188.752 1061.67 21.8425 1214.5 21.8425M607.5 618.185C607.5 190.401 911.833 21.8425 986.5 21.8425M607.5 618.185C607.5 190.401 750 21.8425 787 21.8425" stroke="white" stroke-linejoin="round"/>
</svg>
