<svg width="56" height="51" viewBox="0 0 56 51" fill="none" xmlns="http://www.w3.org/2000/svg">
<path d="M13 16.3333V16.3333C13 15.2477 13 14.7049 13.1389 14.2645C13.4332 13.3311 14.1644 12.5998 15.0979 12.3055C15.5383 12.1667 16.0811 12.1667 17.1667 12.1667L40.3333 12.1667C40.8047 12.1667 41.0404 12.1667 41.1869 12.3131C41.3333 12.4596 41.3333 12.6953 41.3333 13.1667V14.5C41.3333 17.3284 41.3333 18.7426 40.4547 19.6213C39.576 20.5 38.1618 20.5 35.3333 20.5H33M13 16.3333V16.3333C13 17.4189 13 17.9617 13.1389 18.4021C13.4332 19.3356 14.1644 20.0668 15.0979 20.3612C15.5383 20.5 16.0811 20.5 17.1667 20.5L41 20.5C41.9428 20.5 42.4142 20.5 42.7071 20.7929C43 21.0858 43 21.5572 43 22.5L43 27.1667M13 16.3333L13 36.5C13 38.3856 13 39.3284 13.5858 39.9142C14.1716 40.5 15.1144 40.5 17 40.5L41 40.5C41.9428 40.5 42.4142 40.5 42.7071 40.2071C43 39.9142 43 39.4428 43 38.5L43 33.8333M43 33.8333H35C34.0572 33.8333 33.5858 33.8333 33.2929 33.5404C33 33.2475 33 32.7761 33 31.8333V29.1667C33 28.2239 33 27.7525 33.2929 27.4596C33.5858 27.1667 34.0572 27.1667 35 27.1667H43M43 33.8333L43 27.1667" stroke="#86CECB" stroke-width="2"/>
</svg>
