<svg width="35" height="35" viewBox="0 0 35 35" fill="none" xmlns="http://www.w3.org/2000/svg">
<path d="M26.2573 24.0455L25.7953 23.8541H25.7953L26.2573 24.0455ZM24.2025 27.1207L23.8489 26.7672L24.2025 27.1207ZM21.1272 29.1756L20.9359 28.7136H20.9359L21.1272 29.1756ZM17.4997 29.8971L17.4997 29.3971H17.4997V29.8971ZM13.8722 29.1756L13.6808 29.6375H13.6808L13.8722 29.1756ZM10.7969 27.1207L10.4433 27.4743H10.4433L10.7969 27.1207ZM8.74207 24.0455L8.28013 24.2368H8.28013L8.74207 24.0455ZM22.5103 9.56174L22.1733 9.19243L22.5103 9.56174ZM22.6954 9.55996L23.0323 9.19051L22.6954 9.55996ZM26.9571 21.0834L27.4462 21.1872L26.9571 21.0834ZM26.9539 21.1055L27.4526 21.1418L26.9539 21.1055ZM20.9877 10.9904L21.3985 10.7053L20.9877 10.9904ZM21.236 10.9952L21.6354 11.296L21.236 10.9952ZM16.6923 6.60952L16.431 6.18323L16.6923 6.60952ZM16.8468 6.61767L17.1438 6.21549L16.8468 6.61767ZM16.431 6.18323C15.9746 6.46298 13.7601 7.87993 11.6546 10.2853C9.5495 12.6901 7.52051 16.1218 7.52051 20.418H8.52051C8.52051 16.4509 10.3932 13.2445 12.407 10.9439C14.4203 8.64395 16.5417 7.28828 16.9536 7.03581L16.431 6.18323ZM21.3985 10.7053C19.5813 8.08725 17.575 6.53398 17.1438 6.21549L16.5497 7.01985C16.9315 7.30187 18.8448 8.7799 20.577 11.2755L21.3985 10.7053ZM21.6354 11.296C22.1973 10.5501 22.668 10.0948 22.8474 9.93104L22.1733 9.19243C21.9562 9.39052 21.4418 9.89094 20.8367 10.6944L21.6354 11.296ZM22.3585 9.92942C22.934 10.4542 26.4788 13.9497 26.4788 20.4165H27.4788C27.4788 13.5557 23.7142 9.81238 23.0323 9.19051L22.3585 9.92942ZM26.4788 20.4165V20.418H27.4788V20.4165H26.4788ZM26.4788 20.418V20.8749H27.4788V20.418H26.4788ZM26.4788 20.8749C26.4788 20.9113 26.475 20.9463 26.4679 20.9796L27.4462 21.1872C27.4676 21.086 27.4788 20.9815 27.4788 20.8749H26.4788ZM26.4552 21.0692C26.3857 22.0254 26.1633 22.9658 25.7953 23.8541L26.7192 24.2368C27.1282 23.2495 27.3753 22.2045 27.4526 21.1418L26.4552 21.0692ZM25.7953 23.8541C25.3441 24.9435 24.6827 25.9334 23.8489 26.7672L24.556 27.4743C25.4827 26.5476 26.2177 25.4475 26.7192 24.2368L25.7953 23.8541ZM23.8489 26.7672C23.0151 27.601 22.0253 28.2624 20.9359 28.7136L21.3185 29.6375C22.5293 29.136 23.6294 28.4009 24.556 27.4743L23.8489 26.7672ZM20.9359 28.7136C19.8464 29.1649 18.6788 29.3971 17.4997 29.3971L17.4997 30.3971C18.8102 30.3971 20.1078 30.139 21.3185 29.6375L20.9359 28.7136ZM17.4997 29.3971C16.3205 29.3971 15.1529 29.1649 14.0635 28.7136L13.6808 29.6375C14.8915 30.139 16.1892 30.3971 17.4997 30.3971V29.3971ZM14.0635 28.7136C12.9741 28.2624 11.9842 27.601 11.1504 26.7672L10.4433 27.4743C11.37 28.4009 12.4701 29.136 13.6808 29.6375L14.0635 28.7136ZM11.1504 26.7672C10.3167 25.9334 9.65525 24.9435 9.20401 23.8541L8.28013 24.2368C8.78163 25.4475 9.51669 26.5476 10.4433 27.4743L11.1504 26.7672ZM9.20401 23.8541C8.75276 22.7647 8.52051 21.5971 8.52051 20.418H7.52051C7.52051 21.7284 7.77863 23.0261 8.28013 24.2368L9.20401 23.8541ZM22.8474 9.93104C22.7189 10.0484 22.5046 10.0627 22.3585 9.92942L23.0323 9.19051C22.7791 8.95965 22.4088 8.97748 22.1733 9.19243L22.8474 9.93104ZM26.4679 20.9796C26.4622 21.0067 26.4576 21.0367 26.4552 21.0692L27.4526 21.1418C27.4513 21.1595 27.4488 21.1747 27.4462 21.1872L26.4679 20.9796ZM20.577 11.2755C20.8306 11.6409 21.3682 11.6508 21.6354 11.296L20.8367 10.6944C20.9789 10.5055 21.2633 10.5106 21.3985 10.7053L20.577 11.2755ZM16.9536 7.03581C16.8951 7.07164 16.8214 7.09279 16.7421 7.08826C16.6638 7.08379 16.5979 7.05545 16.5497 7.01985L17.1438 6.21549C16.942 6.0664 16.664 6.04041 16.431 6.18323L16.9536 7.03581Z" fill="#86CECB"/>
<path d="M22.6027 24.6779L22.1028 24.688L22.1028 24.6888L22.6027 24.6779ZM12.3955 24.7921L11.8955 24.7921L12.3955 24.7921ZM12.3956 24.7922L11.8956 24.7922L12.3956 24.7922ZM17.5829 16.8325L17.283 17.2327L17.5829 16.8325ZM17.1169 16.4324C16.7716 16.6911 15.4815 17.6972 14.273 19.1629C13.0733 20.6182 11.8955 22.597 11.8955 24.7921L12.8955 24.7921C12.8955 22.9429 13.8987 21.189 15.0446 19.7991C16.1819 18.4197 17.4023 17.4681 17.7165 17.2327L17.1169 16.4324ZM23.1026 24.6678C23.0588 22.5023 21.882 20.5545 20.6921 19.1215C19.4938 17.6783 18.2248 16.6888 17.8827 16.4324L17.283 17.2327C17.5942 17.4658 18.7947 18.4018 19.9228 19.7603C21.0593 21.1291 22.0658 22.8592 22.1028 24.688L23.1026 24.6678ZM22.1028 24.6888C22.1036 24.723 22.1039 24.7573 22.1039 24.7917H23.1039C23.1039 24.75 23.1035 24.7084 23.1026 24.667L22.1028 24.6888ZM22.1039 24.7917C22.1039 27.3345 20.0426 29.3959 17.4998 29.3959V30.3959C20.5949 30.3959 23.1039 27.8868 23.1039 24.7917H22.1039ZM17.4998 29.3959C14.9571 29.3959 12.8958 27.3348 12.8956 24.7921L11.8956 24.7922C11.8959 27.8871 14.4048 30.3959 17.4998 30.3959V29.3959ZM11.8955 24.7921C11.8955 25.0557 12.107 25.2921 12.3956 25.2921V24.2921C12.684 24.2921 12.8955 24.5285 12.8955 24.7921L11.8955 24.7921ZM12.8956 24.7921C12.8956 24.5211 12.6768 24.2921 12.3956 24.2921V25.2921C12.1144 25.2921 11.8956 25.0632 11.8956 24.7922L12.8956 24.7921ZM17.7165 17.2327C17.661 17.2742 17.5857 17.3037 17.4997 17.3037C17.4137 17.3037 17.3384 17.2742 17.283 17.2327L17.8827 16.4324C17.6538 16.2609 17.3459 16.2608 17.1169 16.4324L17.7165 17.2327Z" fill="#86CECB"/>
</svg>
