<svg width="35" height="35" viewBox="0 0 35 35" fill="none" xmlns="http://www.w3.org/2000/svg">
<path d="M14.8265 19.5107L12.1858 19.2707H12.1858C10.658 19.1318 9.89412 19.0623 9.65146 18.5398C9.40881 18.0172 9.84869 17.3888 10.7285 16.132L17.5195 6.43044C18.1007 5.60017 18.3913 5.18503 18.6419 5.27331C18.8926 5.36158 18.8589 5.8672 18.7914 6.87842L18.359 13.3644V13.3644C18.2977 14.2846 18.267 14.7447 18.5314 15.0544C18.7958 15.364 19.2551 15.4058 20.1735 15.4893L22.8142 15.7293C24.342 15.8682 25.1059 15.9377 25.3485 16.4602C25.5912 16.9828 25.1513 17.6112 24.2715 18.868L17.4805 28.5696C16.8993 29.3998 16.6087 29.815 16.3581 29.7267C16.1074 29.6384 16.1411 29.1328 16.2086 28.1216L16.641 21.6356C16.7023 20.7154 16.733 20.2553 16.4686 19.9456C16.2042 19.636 15.7449 19.5942 14.8265 19.5107Z" stroke="#86CECB"/>
</svg>
