<svg width="35" height="35" viewBox="0 0 35 35" fill="none" xmlns="http://www.w3.org/2000/svg">
<path d="M14.872 9.28968C16.0191 6.42989 16.5927 5 17.579 5C18.5653 5 19.1388 6.4299 20.286 9.28969L20.3394 9.42285C20.9875 11.0385 21.3115 11.8463 21.9719 12.3373C22.6323 12.8283 23.4992 12.906 25.2331 13.0612L25.5465 13.0893C28.3842 13.3434 29.803 13.4705 30.1066 14.3732C30.4102 15.2759 29.3565 16.2345 27.2491 18.1518L26.5458 18.7916C25.479 19.7622 24.9456 20.2475 24.697 20.8835C24.6507 21.0021 24.6121 21.1237 24.5816 21.2474C24.4182 21.9104 24.5744 22.6144 24.8868 24.0224L24.984 24.4606C25.5581 27.0482 25.8452 28.342 25.344 28.9C25.1567 29.1086 24.9133 29.2587 24.6429 29.3325C23.9193 29.5299 22.8919 28.6928 20.8372 27.0185C19.488 25.9191 18.8134 25.3694 18.0389 25.2457C17.7342 25.1971 17.4238 25.1971 17.1191 25.2457C16.3446 25.3694 15.67 25.9191 14.3208 27.0185C12.266 28.6928 11.2387 29.5299 10.515 29.3325C10.2446 29.2587 10.0012 29.1086 9.81395 28.9C9.31275 28.342 9.59981 27.0482 10.1739 24.4606L10.2712 24.0224C10.5835 22.6144 10.7397 21.9104 10.5763 21.2474C10.5458 21.1237 10.5073 21.0021 10.4609 20.8835C10.2123 20.2475 9.67891 19.7622 8.61213 18.7916L7.9088 18.1518C5.80145 16.2345 4.74777 15.2759 5.05136 14.3732C5.35496 13.4705 6.77378 13.3434 9.61142 13.0893L9.92488 13.0612C11.6587 12.906 12.5256 12.8283 13.186 12.3373C13.8464 11.8463 14.1705 11.0385 14.8186 9.42285L14.872 9.28968Z" stroke="#86CECB"/>
</svg>
